<svg width="64" height="64" viewBox="0 0 64 64" fill="none" xmlns="http://www.w3.org/2000/svg">
  <rect width="64" height="64" rx="16" fill="#111827"/>
  <circle cx="32" cy="32" r="22" fill="#1F2937" stroke="#FBBF24" stroke-width="3"/>
  <path d="M39.8 24.7C37.9 22.5 35.1 21.2 31.8 21.2C25.9 21.2 21.6 25.7 21.6 32C21.6 38.3 26 42.8 32.1 42.8C36.9 42.8 40.7 40 41.8 35.7H32.8V30.8H47.4C47.5 31.6 47.6 32.4 47.6 33.3C47.6 42.2 41.2 49 32.1 49C22.4 49 15.2 41.8 15.2 32C15.2 22.2 22.3 15 31.9 15C37.3 15 42 17.2 45 21.1L39.8 24.7Z" fill="#F9FAFB"/>
  <path d="M43.8 15.3L45.2 18.4L48.6 18.8L46.1 21.1L46.8 24.5L43.8 22.8L40.8 24.5L41.5 21.1L39 18.8L42.4 18.4L43.8 15.3Z" fill="#FBBF24"/>
  <path d="M16.7 43.6C20.8 51.1 29.5 54.5 37.4 51.7" stroke="#34D399" stroke-width="3.2" stroke-linecap="round"/>
  <circle cx="18.5" cy="20" r="3.4" fill="#34D399"/>
  <circle cx="50.3" cy="39.4" r="3.1" fill="#FBBF24"/>
</svg>
